<?xml version="1.0" encoding="utf-8"?>
<!-- Generator: Adobe Illustrator 25.2.1, SVG Export Plug-In . SVG Version: 6.00 Build 0)  -->
<svg version="1.1" id="b6fd3a59-8b3e-4bb9-b2fa-2eacf9be5298"
	 xmlns="http://www.w3.org/2000/svg" xmlns:xlink="http://www.w3.org/1999/xlink" x="0px" y="0px" viewBox="0 0 694.5 372.5"
	 style="enable-background:new 0 0 694.5 372.5;" xml:space="preserve">
<style type="text/css">
	.st0{fill:#676565;}
	.st1{fill:#2B2828;}
	.st2{fill:#221F1F;}
</style>
<g>
	<path class="st0" d="M1.8,284.8c-0.1,6.3,1.9,12.7-1.8,18.6c0-6.1,0-12.2,0-18.3C0.6,285,1.2,284.9,1.8,284.8z"/>
	<path class="st1" d="M452,150.5c-4.5-0.6-9-1.5-8.5-6.8c0.5-5.4,3.9-9.2,9.9-9.4c4.5-0.2,8.4,1,8.1,6.5
		C461.2,146.5,457.3,149.4,452,150.5z"/>
	<path class="st2" d="M666.8,179.5c-12.8,8-29.6,11.7-34.4,29.7c-1.3,4.9-6.4,8.6-10.9,11.8c-10.3,7.4-20.5,7.5-32.1-0.3
		c4.8-3.4,10.4-5.6,13.9-10.3c4.1-5.6,5.9-12.2,2.2-18c-3.7-6-10.8-4.2-15.8-2c-12,5.2-23.5,11.5-23.7,27.2c0,2.6-1.3,3.7-3.6,4
		c-12.5,1.9-24.7,2.1-36.5-6.1c3.8-2.2,6.7-3.9,9.6-5.6c25.9-15.3,47.9-34.7,62.2-61.5c12.1-22.6,15.7-46.1,3.8-70.1
		c-6.9-13.9-18-18.3-33.1-13.8c-9,2.7-16.7,7.6-23.3,14.1c-20.4,20.2-35.2,43.8-42.6,71.7c-5,18.8-6.9,38-7.6,57.3
		c-0.2,6.6-3.2,7.8-8.7,7.9c-13.6,0.2-21-7.5-20.2-23.2c0.4-7.5-2.3-9.5-9.1-9.7c-6.6-0.1-10.9,2.3-13.6,8.4
		c-3.5,7.7-5.8,16-11.7,23.1c-4.5-8.1-7.7-16-13.1-22.7c-7.9-9.8-16.3-10.1-24.5-0.4c-4.8,5.7-8.9,12.1-14.1,19.3
		c0-7-0.4-12.5,0.1-17.8c0.7-7.1-2.8-8.2-8.5-7c-5,1.1-8.5,3.6-9.9,9c-1.3,4.9-3.3,9.6-5.5,14.1c-3.8,7.8-9,9.2-16.1,3.5
		c-6.8-5.5-11.5-12.4-15.1-20.2c-5.6-12-13-13.3-22-3.6c-2.5,2.7-4.8,5.7-7.1,8.6c-4,0.2-2.2-2.4-1.9-4.2c0.1-4.1,0.8-8.5-5.7-8.1
		c-6.3,0.5-11.5,2.3-12.1,9.6c-0.7,8.9-2.4,17.4-6.2,25.5c-7.2,15.5-16.1,17.3-29.4,6.6c-3.8-3-4.4-5-0.8-8.6
		c8.6-8.7,9.2-18.9,4.7-30c-3.1-7.6-8.2-9.1-15.4-6.4c-16.7,6.2-22.4,18.3-17.1,36.3c0.7,2.5,2.8,5.1-2.1,5.8
		c-11.6,1.6-20.9-6.9-19.5-18.4c4-33.3,5.5-66.8,8.3-100.1c2.8-33,4.2-66.3,16.6-97.6c1.2-3.1-0.4-5.1-0.6-7.6c-3.4,0-6.8,0-10.2,0
		c-10.3,8.5-11.6,21.1-14.1,32.7c-8.5,39.2-9.4,79.4-12.5,119.2c-3.3,42.6-6.5,85.2-18.6,126.5c-7.3,24.9-17,48.8-37.7,66.1
		c-15.9,13.3-34,20.3-54.8,14.4c-27.2-7.6-48-36.2-48.2-65.1c-0.2-29.2,17.7-52.2,48.4-61.5c24-7.3,48.8-8.1,73.7-8.1
		c4.4,0,8.9,0,13.2-0.8c2.9-0.6,5.9-2.7,5.5-6.4c-0.4-3.6-3.7-3.1-6.4-3.5c-10.9-1.5-21.7,0-32.6,0.1c-23.3,0.3-46.1,3.5-67.8,12.5
		c-12.9,5.3-25.1,12.7-34.4,23.3c-4.4,5-8,10.6-10.7,16.6c-3.5,7.9-6.3,16.4-7,25.1c-0.8,9,1,17.8,3.6,26.4
		c10.6,34,42.9,57.9,75.8,54.8c30.9-2.9,55.5-17.1,73.2-42.6c19.1-27.4,26.7-59,32.6-91.1c1.1-5.8,1.9-8.2,8.6-6.7
		c6.9,1.6,14.2,1.3,21.2-0.6c2.3-0.6,4.4-1.4,6.6,0.5c14.9,13.1,31.6,13.9,49.2,6c1.8,9,6.5,11.1,14.1,7.2c3.9-1.9,4.8-5.6,6.3-8.9
		c5.4-11.5,9.6-23.6,17.8-34c2.5,3.6,4.4,6.8,6.8,9.6c7.4,9.2,16.7,14.4,29,14.4c6,0,12.5-7,16.5-2.6c3.4,3.7,1.9,11.7,3.2,17.6
		c0.7,3.2-0.6,8.3,5.2,8.3c5.6,0.1,11.1-0.6,13.8-6.6c2.7-6.2,5-12.6,7.7-18.8c3.4-7.8,6-16.1,12.1-23c5.9,7.3,8.6,15.4,12.4,22.9
		c4.8,9.6,10.6,11.2,19.5,5.2c6.4-4.3,10.5-10.8,15.2-17.2c8.1,13.7,20.7,16.7,34,14.8c9.8-1.4,11.1,2,11.4,10.2
		c1.3,34.3,7,68.1,10,102.2c0.6,6.8,3.2,10.2,10.2,9.1c6.4-1,9.5-4.5,8.6-11.3c-1.8-12.7-3.5-25.5-5.1-38.2
		c-2.9-24.2-5.8-48.4-6.9-73.3c8.4,2.2,16,4.9,24.3,5c8.6,0.1,17-0.7,25.3-2.4c5.6-1.1,10.3-0.5,15.4,2.5c5.3,3.1,11.5,3.7,17.7,3.9
		c12,0.4,22.9-3.9,34.5-8.2c-0.5,3.4-1.2,5.7-1,8c0.3,3.2-4.6,7.9,1.3,9.5c5.4,1.5,10.9-0.5,14.5-5.2c1.4-1.8,1.6-4.4,2.3-6.7
		c4.9-14.1,10.7-27.8,19.8-39.9c3.5-4.8,6.8-9.6,14.7-7.9c4.4,1,10-0.6,12.7-6.1C684.6,172.9,674.9,174.4,666.8,179.5z M227.8,208.7
		c-1.6-3.6-1.9-6.9,0.4-11.1C229.5,202.4,230.1,205.6,227.8,208.7z M512.8,208.7c0.8-45.6,9.8-86.5,41.1-119.6
		c6.1-6.5,12.3-16.1,22.3-13.2c9.6,2.8,11.3,13.7,13.3,22.5c3,13.6,1.3,27-4.3,39.7C570.9,170.7,545.6,192.1,512.8,208.7z
		 M588.9,200.1c1.6,6.4-0.4,9.9-4.2,14.9C582.3,208,585.1,204.8,588.9,200.1z"/>
</g>
</svg>
